<svg width="80" height="80" viewBox="0 0 80 80" fill="none" xmlns="http://www.w3.org/2000/svg">
<rect width="80" height="80" rx="5" fill="#A5EB9F"/>
<path d="M51.3836 34.3192C51.3836 34.3192 48.7362 33.5833 48.5264 32.4006C48.3166 31.2178 50.1009 30.9114 50.1117 29.7078C50.1224 28.5042 46.1684 28.5465 45.6096 26.8895C45.0508 25.2325 47.6242 24.028 46.7323 22.5198C45.8405 21.0116 43.0682 23.0682 41.8274 21.6171C40.5865 20.1659 41.1752 17.5089 42.6032 15.9897C44.0313 14.4704 46.7219 13.9083 47.7954 14.5576C48.869 15.2069 48.4723 16.4996 49.4702 17.2535C50.4681 18.0074 53.4242 16.4042 55.4419 16.9597C57.4597 17.5153 59.3313 18.7562 59.9441 19.778C60.5568 20.7998 61.0173 21.545 60.7534 22.7126C60.4896 23.8801 58.5188 24.386 57.7545 25.3442C56.9902 26.3024 56.0507 26.8409 56.1692 28.037C56.2877 29.2331 59.0041 29.2955 59.142 30.3749C59.28 31.4542 56.5541 34.3192 56.5541 34.3192" stroke="black" stroke-width="2" stroke-linejoin="round"/>
<path d="M14 65.5C14 65.5 25.6695 18.344 14.8955 27.158C11.9947 29.5311 14.8963 27.158 9.66687 31.1386C-1.64885 39.7522 48.5302 23.1582 43.708 34.2737C38.8857 45.3892 36.182 51.6212 31.3598 62.7367C26.5375 73.8522 22.8097 53.5067 24.8917 47.3193C27.8859 38.4206 49.1796 58.7529 52 46" stroke="black" stroke-width="2" stroke-linecap="round" stroke-linejoin="round"/>
<path d="M52 46L51.9478 42.6305C51.9414 42.218 51.8224 41.8151 51.6038 41.4653C50.661 39.9567 51.7455 38 53.5244 38H54.868C56.6397 38 57.7199 39.9489 56.7809 41.4514C56.5568 41.8099 56.438 42.2242 56.438 42.647V44C56.438 46.7614 58.6766 49 61.438 49H66.438C66.438 49 72.5 49.5 72.5 55C72.5 58.2451 71.2537 59.7455 70.0056 60.4344C68.9833 60.9987 68.0672 62.3169 68.529 63.3894C68.9614 64.3935 68.2333 65.5144 67.1401 65.5274L27.5 66" stroke="black" stroke-width="2" stroke-linecap="round" stroke-linejoin="round"/>
<path d="M29 66C29 66 62.425 66 14 66" stroke="black" stroke-width="2" stroke-linecap="round" stroke-linejoin="round"/>
</svg>
