<svg width="54" height="54" viewBox="0 0 54 54" fill="none" xmlns="http://www.w3.org/2000/svg">
<ellipse cx="26.8499" cy="26.582" rx="26.8499" ry="26.582" fill="#FAFAF9"/>
<path d="M22.0367 23.969C22.0288 29.8716 19.4535 40.8726 19.4535 40.8726H9.64564C3.66359 40.8726 1.18057 6.91541 28.3353 6.91541C50.3175 6.91541 50.5081 32.2501 44.735 32.2499C38.962 32.2496 37.8517 32.2499 37.8517 32.2499C37.107 35.7407 34.3628 34.6224 31.5654 33.1538L28.3354 40.8726C25.7339 47.0893 23.7229 35.7104 24.8461 32.2499C25.6708 29.7088 28.6471 31.6219 31.5654 33.1538L34.9968 24.9537C36.4898 21.3858 28.2098 22.9225 22.0367 23.969Z" fill="#EEEAE6"/>
<path d="M19.4535 40.8726C19.4535 40.8726 25.2657 16.0444 19.4535 20.9739C17.8886 22.3012 19.4539 20.9739 16.6328 23.2003C10.5283 28.0177 37.5983 18.737 34.9968 24.9537C32.3954 31.1704 30.9368 34.6559 28.3354 40.8726C25.7339 47.0893 23.7229 35.7104 24.8461 32.2499C26.4613 27.273 36.3302 39.3824 37.8517 32.2499C37.8517 32.2499 38.962 32.2496 44.735 32.2499C50.5081 32.2501 50.3175 6.91541 28.3353 6.91541C1.18057 6.91541 3.66359 40.8726 9.64564 40.8726C15.6277 40.8726 19.4535 40.8726 19.4535 40.8726Z" stroke="#2A2A2A" stroke-width="2.5" stroke-linecap="round" stroke-linejoin="round"/>
</svg>
