<svg width="75" height="75" viewBox="0 0 75 75" fill="none" xmlns="http://www.w3.org/2000/svg">
<circle cx="37.0226" cy="37.0226" r="35.0544" fill="white"/>
<path d="M24.7458 17.2797C28.3866 14.1918 29.5928 17.3364 29.5854 22.891C41.1508 20.9302 56.6634 18.0513 53.8662 24.7357L47.4374 40.0987L41.3861 54.5598C36.5122 66.2069 32.7446 44.8884 34.8488 38.4051C36.3939 33.6444 41.97 37.2285 47.4374 40.0987L53.8662 24.7357C56.6634 18.0513 41.1508 20.9302 29.5854 22.891C20.999 24.3467 14.5883 25.2963 19.4613 21.4507C24.7466 17.2797 21.8139 19.7663 24.7458 17.2797Z" fill="white"/>
<path d="M6.37085 54.5598H24.7458C24.7458 54.5598 35.6349 8.04419 24.7458 17.2797C21.8139 19.7663 24.7466 17.2797 19.4613 21.4507C8.02461 30.4761 58.74 13.0887 53.8662 24.7357C48.9924 36.3827 46.2599 42.9128 41.3861 54.5598C36.5122 66.2069 32.7446 44.8884 34.8488 38.4051C37.8751 29.0809 56.3642 51.7678 59.2148 38.4051H72.1107" stroke="black" stroke-width="3" stroke-linecap="round" stroke-linejoin="round"/>
<circle cx="37.0227" cy="37.0227" r="36.0227" stroke="white" stroke-width="2"/>
</svg>
