<svg width="54" height="54" viewBox="0 0 54 54" fill="none" xmlns="http://www.w3.org/2000/svg">
<ellipse cx="26.8499" cy="26.582" rx="26.8499" ry="26.582" fill="#FAFAF9"/>
<path d="M19.4535 40.8726C19.4535 40.8726 25.2657 16.0444 19.4535 20.9739C17.8886 22.3012 19.4539 20.9739 16.6328 23.2003C10.5284 28.0177 37.5983 18.737 34.9968 24.9537C32.3954 31.1704 30.9369 34.6559 28.3354 40.8726C25.734 47.0893 23.723 35.7104 24.8461 32.2499C26.4614 27.273 36.3302 39.3824 37.8517 32.2499C37.8517 32.2499 38.962 32.2496 44.735 32.2499C50.5081 32.2501 50.3175 6.91541 28.3354 6.91541C1.18064 6.91541 3.66365 40.8726 9.64569 40.8726C15.6277 40.8726 19.4535 40.8726 19.4535 40.8726Z" stroke="black" stroke-width="1.5" stroke-linecap="round" stroke-linejoin="round"/>
</svg>
