<svg width="44" height="37" viewBox="0 0 44 37" fill="none" xmlns="http://www.w3.org/2000/svg">
<path d="M14.1889 34.4572C14.1889 34.4572 20.0011 9.62899 14.1889 14.5585C12.624 15.8858 14.1893 14.5585 11.3682 16.7848C5.26375 21.6023 32.3336 12.3215 29.7322 18.5383C27.1307 24.755 25.6722 28.2405 23.0708 34.4572C20.4693 40.6739 18.4583 29.295 19.5815 25.8345C21.1967 20.8576 31.0655 32.9669 32.5871 25.8345C32.5871 25.8345 33.6973 25.8342 39.4704 25.8345C45.2434 25.8347 45.0529 0.5 23.0707 0.5C-4.08401 0.5 -1.601 34.4572 4.38104 34.4572C10.3631 34.4572 14.1889 34.4572 14.1889 34.4572Z" stroke="black" stroke-linecap="round" stroke-linejoin="round"/>
</svg>
