<svg width="171" height="77" viewBox="0 0 171 77" fill="none" xmlns="http://www.w3.org/2000/svg">
<rect x="1.49976" width="167.357" height="76.402" rx="2" fill="#909090"/>
<path d="M1.5 63.8207H102.554C102.554 63.8207 118.086 -2.52707 102.554 10.646C98.3722 14.1928 102.555 10.646 95.0164 16.5953C78.7037 29.4689 151.042 4.66814 144.09 21.281C137.138 37.8938 133.241 47.2079 126.289 63.8207C119.337 80.4336 113.963 50.0259 116.965 40.7784C121.281 27.4787 147.653 59.8383 151.719 40.7784H168.857" stroke="#F7F7F7" stroke-width="3" stroke-linecap="round" stroke-linejoin="round"/>
<path d="M27.1925 50.0578C27.1925 51.5244 26.8458 52.7911 26.1525 53.8578C25.4858 54.9244 24.5525 55.7511 23.3525 56.3378C22.1525 56.8978 20.7392 57.1778 19.1125 57.1778C17.8325 57.1778 16.6458 57.0178 15.5525 56.6978C14.4858 56.4044 13.5658 56.0444 12.7925 55.6178C12.0458 55.1911 11.4858 54.8311 11.1125 54.5378V51.0978H11.6325C12.4592 51.8178 13.5258 52.4711 14.8325 53.0578C16.1658 53.6444 17.4992 53.9378 18.8325 53.9378C19.6858 53.9378 20.4725 53.8178 21.1925 53.5778C21.9392 53.3111 22.5258 52.8978 22.9525 52.3378C23.4058 51.7778 23.6325 51.0844 23.6325 50.2578C23.6325 49.2178 23.3658 48.3644 22.8325 47.6978C22.2992 47.0044 21.4858 46.3244 20.3925 45.6578L15.5525 42.6178C14.8058 42.1378 14.0325 41.5911 13.2325 40.9778C12.4592 40.3378 11.8058 39.5644 11.2725 38.6578C10.7658 37.7244 10.5125 36.5911 10.5125 35.2578C10.5125 33.7378 10.8592 32.4578 11.5525 31.4178C12.2458 30.3778 13.1792 29.5911 14.3525 29.0578C15.5258 28.5244 16.8458 28.2578 18.3125 28.2578C19.6192 28.2578 20.7658 28.3911 21.7525 28.6578C22.7392 28.9244 23.5792 29.2578 24.2725 29.6578C24.9658 30.0578 25.5125 30.4578 25.9125 30.8578V34.2978H25.3525C24.6858 33.5244 23.7392 32.8711 22.5125 32.3378C21.2858 31.7778 19.9125 31.4978 18.3925 31.4978C17.1392 31.4978 16.0992 31.8044 15.2725 32.4178C14.4725 33.0044 14.0725 33.8578 14.0725 34.9778C14.0725 36.0178 14.4325 36.9111 15.1525 37.6578C15.8725 38.4044 16.7392 39.0978 17.7525 39.7378L22.2325 42.5378C23.1392 43.0978 23.9658 43.7244 24.7125 44.4178C25.4592 45.1111 26.0592 45.9111 26.5125 46.8178C26.9658 47.7244 27.1925 48.8044 27.1925 50.0578ZM30.4253 56.6978V28.6978H39.3453C41.052 28.6978 42.5586 29.0178 43.8653 29.6578C45.172 30.2711 46.212 31.2444 46.9853 32.5778C47.7586 33.9111 48.1453 35.6178 48.1453 37.6978C48.1453 39.7778 47.7453 41.5111 46.9453 42.8978C46.172 44.2844 45.1186 45.3378 43.7853 46.0578C42.4786 46.7511 40.9986 47.0978 39.3453 47.0978H33.9453V56.6978H30.4253ZM33.9453 43.9778H39.0253C40.0653 43.9778 40.9986 43.7644 41.8253 43.3378C42.652 42.8844 43.3053 42.2044 43.7853 41.2978C44.292 40.3911 44.5453 39.2711 44.5453 37.9378C44.5453 36.6311 44.292 35.5244 43.7853 34.6178C43.3053 33.7111 42.652 33.0311 41.8253 32.5778C40.9986 32.1244 40.0653 31.8978 39.0253 31.8978H33.9453V43.9778ZM50.1247 42.6978C50.1247 39.2844 50.6714 36.5244 51.7647 34.4178C52.858 32.2844 54.2847 30.7244 56.0447 29.7378C57.8314 28.7244 59.7647 28.2178 61.8447 28.2178C63.9247 28.2178 65.8447 28.7244 67.6047 29.7378C69.3914 30.7244 70.8314 32.2844 71.9247 34.4178C73.018 36.5244 73.5647 39.2844 73.5647 42.6978C73.5647 46.0844 73.018 48.8444 71.9247 50.9778C70.8314 53.1111 69.3914 54.6844 67.6047 55.6978C65.8447 56.6844 63.9247 57.1778 61.8447 57.1778C59.7647 57.1778 57.8314 56.6844 56.0447 55.6978C54.2847 54.6844 52.858 53.1111 51.7647 50.9778C50.6714 48.8444 50.1247 46.0844 50.1247 42.6978ZM53.7647 42.6978C53.7647 45.1778 54.1114 47.2444 54.8047 48.8978C55.5247 50.5511 56.498 51.7911 57.7247 52.6178C58.9514 53.4178 60.3247 53.8178 61.8447 53.8178C63.338 53.8178 64.698 53.4178 65.9247 52.6178C67.1514 51.7911 68.1247 50.5511 68.8447 48.8978C69.5914 47.2444 69.9647 45.1778 69.9647 42.6978C69.9647 40.1911 69.5914 38.1244 68.8447 36.4978C68.098 34.8444 67.1114 33.6178 65.8847 32.8178C64.658 31.9911 63.3114 31.5778 61.8447 31.5778C60.3247 31.5778 58.9514 31.9911 57.7247 32.8178C56.498 33.6444 55.5247 34.8844 54.8047 36.5378C54.1114 38.1644 53.7647 40.2178 53.7647 42.6978ZM77.4975 28.6978H80.9375V56.6978H77.4175L77.4975 28.6978ZM86.9375 28.6978C88.5108 28.6978 89.9108 29.0178 91.1375 29.6578C92.3642 30.2711 93.3242 31.2044 94.0175 32.4578C94.7375 33.7111 95.0975 35.2711 95.0975 37.1378C95.0975 38.9511 94.7242 40.4844 93.9775 41.7378C93.2575 42.9911 92.2975 43.9511 91.0975 44.6178C89.8975 45.2578 88.5908 45.5778 87.1775 45.5778H78.7375V28.6978H86.9375ZM80.6975 42.4978H86.6575C87.5642 42.4978 88.3775 42.2978 89.0975 41.8978C89.8175 41.4978 90.3908 40.9111 90.8175 40.1378C91.2708 39.3378 91.4975 38.3911 91.4975 37.2978C91.4975 36.0978 91.2708 35.0978 90.8175 34.2978C90.3908 33.4978 89.8175 32.8978 89.0975 32.4978C88.3775 32.0978 87.5642 31.8978 86.6575 31.8978H80.6975V42.4978ZM85.4975 43.6178L88.8175 43.1778L95.0975 56.0578V56.6978H91.4975L85.4975 43.6178Z" fill="#F7F7F7"/>
</svg>
