<svg width="106" height="150" viewBox="0 0 106 150" fill="none" xmlns="http://www.w3.org/2000/svg">
<rect width="105.516" height="149.781" fill="white"/>
<path d="M38.0742 103.978C38.0742 103.978 48.5971 59.0265 38.0742 67.9514C35.241 70.3544 38.0749 67.9514 32.9674 71.9821C21.9154 80.704 70.9251 63.9013 66.2152 75.1567C61.5053 86.412 58.8647 92.7223 54.1548 103.978C49.4449 115.233 45.804 94.6316 47.8374 88.3663C50.7619 79.3557 68.6292 101.28 71.3839 88.3663C71.3839 88.3663 73.3941 88.3659 83.8461 88.3663C94.2982 88.3667 93.9532 42.4985 54.1547 42.4985C4.99134 42.4985 9.48681 103.978 20.3172 103.978C31.1477 103.978 38.0742 103.978 38.0742 103.978Z" stroke="black" stroke-width="3" stroke-linecap="round" stroke-linejoin="round"/>
</svg>
