<svg width="247" height="110" viewBox="0 0 247 110" fill="none" xmlns="http://www.w3.org/2000/svg">
<g clip-path="url(#clip0_493_4129)">
<path d="M160.513 98.1945C165.969 80.4876 174.383 39.0014 160.513 50.754C156.779 53.9183 160.514 50.754 153.781 56.0618C139.214 67.547 203.815 45.4208 197.607 60.2421C191.398 75.0634 187.918 83.3732 181.71 98.1945C175.501 113.016 170.702 85.8873 173.382 77.637C177.237 65.7715 200.789 94.6416 204.419 77.637C204.419 77.637 229.356 80.9092 245.213 77.637C241.502 -32.233 -37.9984 -21.3366 6.23208 98.1945C24.8811 95.6912 159.047 102.951 160.513 98.1945Z" stroke="#2A2A2A" stroke-width="2" stroke-linecap="round" stroke-linejoin="round"/>
<path d="M38.2716 81.9333C38.2716 83.9153 37.7756 85.6396 36.7836 87.1063C35.8313 88.5729 34.4822 89.7225 32.7364 90.555C30.9906 91.3477 28.9272 91.7441 26.5465 91.7441C24.6022 91.7441 22.8366 91.5063 21.2494 91.0306C19.7019 90.5945 18.3727 90.0594 17.2617 89.4252C16.1506 88.7909 15.3174 88.2558 14.7619 87.8198V84.7279H15.3571C16.5475 85.7585 18.1544 86.7099 20.1781 87.582C22.2414 88.454 24.3641 88.8901 26.5465 88.8901C28.0542 88.8901 29.4629 88.672 30.7723 88.236C32.0817 87.7604 33.1332 87.0269 33.9267 86.036C34.76 85.045 35.1766 83.7766 35.1766 82.2306C35.1766 80.4468 34.7402 78.9604 33.8672 77.7712C32.9942 76.5423 31.6848 75.3729 29.939 74.2631L21.2494 68.6739C20.1781 67.9604 19.067 67.1675 17.9164 66.2955C16.7657 65.3837 15.7935 64.2739 15 62.9658C14.2461 61.6577 13.8691 60.0918 13.8691 58.2685C13.8691 56.1675 14.3651 54.4234 15.3571 53.036C16.3491 51.609 17.6981 50.5387 19.4043 49.8252C21.1106 49.1117 23.0151 48.755 25.1181 48.755C27.1814 48.755 28.947 48.9729 30.4152 49.409C31.9229 49.845 33.153 50.3604 34.1053 50.955C35.0973 51.5496 35.8313 52.0847 36.3075 52.5604V55.6523H35.7123C34.8393 54.582 33.4506 53.6504 31.546 52.8577C29.6812 52.0252 27.4591 51.609 24.88 51.609C22.5786 51.609 20.674 52.1639 19.1662 53.2739C17.6981 54.3441 16.9641 55.8901 16.9641 57.9117C16.9641 59.735 17.5395 61.3009 18.6901 62.609C19.8805 63.9171 21.1899 65.0269 22.6183 65.9387L30.4747 70.9333C31.8238 71.7658 33.0935 72.6972 34.2838 73.7279C35.4742 74.7188 36.4265 75.8685 37.1407 77.1766C37.8947 78.4847 38.2716 80.0702 38.2716 81.9333ZM43.9676 91.0306V49.409H56.4664C59.0059 49.409 61.2675 49.8847 63.2514 50.836C65.2355 51.7477 66.8027 53.1747 67.9534 55.1171C69.1437 57.0594 69.7389 59.5567 69.7389 62.609C69.7389 65.6215 69.1437 68.1585 67.9534 70.2198C66.8027 72.2414 65.2355 73.7675 63.2514 74.7982C61.2675 75.8288 59.0059 76.3441 56.4664 76.3441H47.122V91.0306H43.9676ZM47.122 73.4901H56.4664C58.2916 73.4901 59.9582 73.1134 61.4659 72.3604C62.9738 71.6072 64.1839 70.4577 65.0965 68.9117C66.0488 67.3261 66.5249 65.3242 66.5249 62.9063C66.5249 60.5279 66.0488 58.5458 65.0965 56.9604C64.1839 55.3747 62.9738 54.2053 61.4659 53.4523C59.9582 52.6594 58.2916 52.2631 56.4664 52.2631H47.122V73.4901ZM73.4522 70.2198C73.4522 65.1458 74.2657 61.0431 75.8925 57.9117C77.5194 54.7404 79.6421 52.4215 82.2609 50.955C84.9194 49.4486 87.7961 48.6955 90.891 48.6955C93.986 48.6955 96.8428 49.4486 99.4616 50.955C102.12 52.4215 104.263 54.7404 105.89 57.9117C107.517 61.0431 108.33 65.1458 108.33 70.2198C108.33 75.254 107.517 79.3567 105.89 82.5279C104.263 85.699 102.12 88.0377 99.4616 89.5441C96.8428 91.0107 93.986 91.7441 90.891 91.7441C87.7961 91.7441 84.9194 91.0107 82.2609 89.5441C79.6421 88.0377 77.5194 85.699 75.8925 82.5279C74.2657 79.3567 73.4522 75.254 73.4522 70.2198ZM76.6662 70.2198C76.6662 74.382 77.2813 77.8306 78.5113 80.5658C79.7811 83.3009 81.4872 85.3423 83.6298 86.6901C85.7725 88.0377 88.1731 88.7117 90.8315 88.7117C93.4503 88.7117 95.831 88.0377 97.9737 86.6901C100.156 85.3423 101.882 83.3009 103.152 80.5658C104.461 77.8306 105.116 74.382 105.116 70.2198C105.116 66.018 104.461 62.5693 103.152 59.8739C101.843 57.1387 100.097 55.0972 97.9142 53.7495C95.7715 52.4017 93.4107 51.7279 90.8315 51.7279C88.1731 51.7279 85.7725 52.4215 83.6298 53.809C81.4872 55.1567 79.7811 57.1982 78.5113 59.9333C77.2813 62.6685 76.6662 66.0972 76.6662 70.2198ZM114.997 49.409H118.032V91.0306H114.878L114.997 49.409ZM128.329 49.409C130.67 49.409 132.733 49.8847 134.519 50.836C136.344 51.7477 137.772 53.135 138.804 54.9982C139.875 56.8215 140.411 59.1009 140.411 61.836C140.411 64.4523 139.875 66.672 138.804 68.4955C137.772 70.3188 136.384 71.7063 134.638 72.6577C132.892 73.609 130.987 74.0847 128.924 74.0847H115.533V49.409H128.329ZM117.437 71.2306H128.329C129.956 71.2306 131.424 70.8936 132.733 70.2198C134.082 69.5063 135.154 68.4756 135.947 67.1279C136.781 65.7404 137.197 64.036 137.197 62.0144C137.197 59.7945 136.781 57.9712 135.947 56.5441C135.154 55.0774 134.082 54.0072 132.733 53.3333C131.424 52.6198 129.956 52.2631 128.329 52.2631H117.437V71.2306ZM127.198 72.2414L130.055 71.2901L140.352 90.3171V91.0306H137.257L127.198 72.2414Z" fill="#2A2A2A"/>
</g>
<defs>
<clipPath id="clip0_493_4129">
<rect width="247" height="110" fill="white"/>
</clipPath>
</defs>
</svg>
