<svg width="130" height="45" viewBox="0 0 130 45" fill="none" xmlns="http://www.w3.org/2000/svg">
<path d="M14.4077 31.065C14.4077 31.065 20.7936 9.13412 14.4077 12.5366C12.5363 13.5337 14.4081 12.5366 11.6931 14.6096C5.81828 19.0953 31.87 10.4536 29.3664 16.2423C26.8628 22.0309 25.4591 25.2764 22.9555 31.065C20.4519 36.8537 18.5166 26.2583 19.5975 23.036C21.152 18.4019 30.6496 29.6774 32.1139 23.036" stroke="black" stroke-linecap="round" stroke-linejoin="round"/>
<path d="M1 21.8008L20.752 1L41.2033 21.8008L20.752 44L1 21.8008Z" stroke="black" stroke-linejoin="round"/>
<path d="M60.175 27.85C60.175 28.7667 59.9583 29.5583 59.525 30.225C59.1083 30.8917 58.525 31.4083 57.775 31.775C57.025 32.125 56.1417 32.3 55.125 32.3C54.325 32.3 53.5833 32.2 52.9 32C52.2333 31.8167 51.6583 31.5917 51.175 31.325C50.7083 31.0583 50.3583 30.8333 50.125 30.65V28.5H50.45C50.9667 28.95 51.6333 29.3583 52.45 29.725C53.2833 30.0917 54.1167 30.275 54.95 30.275C55.4833 30.275 55.975 30.2 56.425 30.05C56.8917 29.8833 57.2583 29.625 57.525 29.275C57.8083 28.925 57.95 28.4917 57.95 27.975C57.95 27.325 57.7833 26.7917 57.45 26.375C57.1167 25.9417 56.6083 25.5167 55.925 25.1L52.9 23.2C52.4333 22.9 51.95 22.5583 51.45 22.175C50.9667 21.775 50.5583 21.2917 50.225 20.725C49.9083 20.1417 49.75 19.4333 49.75 18.6C49.75 17.65 49.9667 16.85 50.4 16.2C50.8333 15.55 51.4167 15.0583 52.15 14.725C52.8833 14.3917 53.7083 14.225 54.625 14.225C55.4417 14.225 56.1583 14.3083 56.775 14.475C57.3917 14.6417 57.9167 14.85 58.35 15.1C58.7833 15.35 59.125 15.6 59.375 15.85V18H59.025C58.6083 17.5167 58.0167 17.1083 57.25 16.775C56.4833 16.425 55.625 16.25 54.675 16.25C53.8917 16.25 53.2417 16.4417 52.725 16.825C52.225 17.1917 51.975 17.725 51.975 18.425C51.975 19.075 52.2 19.6333 52.65 20.1C53.1 20.5667 53.6417 21 54.275 21.4L57.075 23.15C57.6417 23.5 58.1583 23.8917 58.625 24.325C59.0917 24.7583 59.4667 25.2583 59.75 25.825C60.0333 26.3917 60.175 27.0667 60.175 27.85ZM62.1955 32V14.5H67.7705C68.8372 14.5 69.7788 14.7 70.5955 15.1C71.4122 15.4833 72.0622 16.0917 72.5455 16.925C73.0288 17.7583 73.2705 18.825 73.2705 20.125C73.2705 21.425 73.0205 22.5083 72.5205 23.375C72.0372 24.2417 71.3788 24.9 70.5455 25.35C69.7288 25.7833 68.8038 26 67.7705 26H64.3955V32H62.1955ZM64.3955 24.05H67.5705C68.2205 24.05 68.8038 23.9167 69.3205 23.65C69.8372 23.3667 70.2455 22.9417 70.5455 22.375C70.8622 21.8083 71.0205 21.1083 71.0205 20.275C71.0205 19.4583 70.8622 18.7667 70.5455 18.2C70.2455 17.6333 69.8372 17.2083 69.3205 16.925C68.8038 16.6417 68.2205 16.5 67.5705 16.5H64.3955V24.05ZM74.5076 23.25C74.5076 21.1167 74.8493 19.3917 75.5326 18.075C76.216 16.7417 77.1076 15.7667 78.2076 15.15C79.3243 14.5167 80.5326 14.2 81.8326 14.2C83.1326 14.2 84.3326 14.5167 85.4326 15.15C86.5493 15.7667 87.4493 16.7417 88.1326 18.075C88.816 19.3917 89.1576 21.1167 89.1576 23.25C89.1576 25.3667 88.816 27.0917 88.1326 28.425C87.4493 29.7583 86.5493 30.7417 85.4326 31.375C84.3326 31.9917 83.1326 32.3 81.8326 32.3C80.5326 32.3 79.3243 31.9917 78.2076 31.375C77.1076 30.7417 76.216 29.7583 75.5326 28.425C74.8493 27.0917 74.5076 25.3667 74.5076 23.25ZM76.7826 23.25C76.7826 24.8 76.9993 26.0917 77.4326 27.125C77.8826 28.1583 78.491 28.9333 79.2576 29.45C80.0243 29.95 80.8826 30.2 81.8326 30.2C82.766 30.2 83.616 29.95 84.3826 29.45C85.1493 28.9333 85.7576 28.1583 86.2076 27.125C86.6743 26.0917 86.9076 24.8 86.9076 23.25C86.9076 21.6833 86.6743 20.3917 86.2076 19.375C85.741 18.3417 85.1243 17.575 84.3576 17.075C83.591 16.5583 82.7493 16.3 81.8326 16.3C80.8826 16.3 80.0243 16.5583 79.2576 17.075C78.491 17.5917 77.8826 18.3667 77.4326 19.4C76.9993 20.4167 76.7826 21.7 76.7826 23.25ZM91.6156 14.5H93.7656V32H91.5656L91.6156 14.5ZM97.5156 14.5C98.499 14.5 99.374 14.7 100.141 15.1C100.907 15.4833 101.507 16.0667 101.941 16.85C102.391 17.6333 102.616 18.6083 102.616 19.775C102.616 20.9083 102.382 21.8667 101.916 22.65C101.466 23.4333 100.866 24.0333 100.116 24.45C99.3656 24.85 98.549 25.05 97.6656 25.05H92.3906V14.5H97.5156ZM93.6156 23.125H97.3406C97.9073 23.125 98.4156 23 98.8656 22.75C99.3156 22.5 99.674 22.1333 99.9406 21.65C100.224 21.15 100.366 20.5583 100.366 19.875C100.366 19.125 100.224 18.5 99.9406 18C99.674 17.5 99.3156 17.125 98.8656 16.875C98.4156 16.625 97.9073 16.5 97.3406 16.5H93.6156V23.125ZM96.6156 23.825L98.6906 23.55L102.616 31.6V32H100.366L96.6156 23.825ZM114.02 32V16.9L110.845 18.675H110.545V16.425L113.995 14.5H116.22V32H114.02ZM128.749 16.825L122.749 32H120.349L126.424 16.85V16.6H118.274V14.5H128.749V16.825Z" fill="black"/>
</svg>
