<svg width="163" height="53" viewBox="0 0 163 53" fill="none" xmlns="http://www.w3.org/2000/svg">
<path d="M161.61 30.1237H134.195C131.755 41.5631 115.927 22.1415 113.336 30.1237C111.535 35.6739 114.76 53.924 118.932 43.9533C123.105 33.9826 125.444 28.3924 129.616 18.4217C133.788 8.45094 90.3724 23.3359 100.163 15.6094C104.688 12.0388 102.177 14.1675 104.687 12.0388C114.009 4.1325 104.687 43.9533 104.687 43.9533H1" stroke="#2A2A2A" stroke-width="2" stroke-linecap="round" stroke-linejoin="round"/>
<path d="M27.5078 34.88C27.5078 36.2133 27.1744 37.3733 26.5078 38.36C25.8678 39.3467 24.9611 40.12 23.7878 40.68C22.6144 41.2133 21.2278 41.48 19.6278 41.48C18.3211 41.48 17.1344 41.32 16.0678 41C15.0278 40.7067 14.1344 40.3467 13.3878 39.92C12.6411 39.4933 12.0811 39.1333 11.7078 38.84V36.76H12.1078C12.9078 37.4533 13.9878 38.0933 15.3478 38.68C16.7344 39.2667 18.1611 39.56 19.6278 39.56C20.6411 39.56 21.5878 39.4133 22.4678 39.12C23.3478 38.8 24.0544 38.3067 24.5878 37.64C25.1478 36.9733 25.4278 36.12 25.4278 35.08C25.4278 33.88 25.1344 32.88 24.5478 32.08C23.9611 31.2533 23.0811 30.4667 21.9078 29.72L16.0678 25.96C15.3478 25.48 14.6011 24.9467 13.8278 24.36C13.0544 23.7467 12.4011 23 11.8678 22.12C11.3611 21.24 11.1078 20.1867 11.1078 18.96C11.1078 17.5467 11.4411 16.3733 12.1078 15.44C12.7744 14.48 13.6811 13.76 14.8278 13.28C15.9744 12.8 17.2544 12.56 18.6678 12.56C20.0544 12.56 21.2411 12.7067 22.2278 13C23.2411 13.2933 24.0678 13.64 24.7078 14.04C25.3744 14.44 25.8678 14.8 26.1878 15.12V17.2H25.7878C25.2011 16.48 24.2678 15.8533 22.9878 15.32C21.7344 14.76 20.2411 14.48 18.5078 14.48C16.9611 14.48 15.6811 14.8533 14.6678 15.6C13.6811 16.32 13.1878 17.36 13.1878 18.72C13.1878 19.9467 13.5744 21 14.3478 21.88C15.1478 22.76 16.0278 23.5067 16.9878 24.12L22.2678 27.48C23.1744 28.04 24.0278 28.6667 24.8278 29.36C25.6278 30.0267 26.2678 30.8 26.7478 31.68C27.2544 32.56 27.5078 33.6267 27.5078 34.88ZM31.3359 41V13H39.7359C41.4426 13 42.9626 13.32 44.2959 13.96C45.6292 14.5733 46.6826 15.5333 47.4559 16.84C48.2559 18.1467 48.6559 19.8267 48.6559 21.88C48.6559 23.9067 48.2559 25.6133 47.4559 27C46.6826 28.36 45.6292 29.3867 44.2959 30.08C42.9626 30.7733 41.4426 31.12 39.7359 31.12H33.4559V41H31.3359ZM33.4559 29.2H39.7359C40.9626 29.2 42.0826 28.9467 43.0959 28.44C44.1092 27.9333 44.9226 27.16 45.5359 26.12C46.1759 25.0533 46.4959 23.7067 46.4959 22.08C46.4959 20.48 46.1759 19.1467 45.5359 18.08C44.9226 17.0133 44.1092 16.2267 43.0959 15.72C42.0826 15.1867 40.9626 14.92 39.7359 14.92H33.4559V29.2ZM51.1515 27C51.1515 23.5867 51.6982 20.8267 52.7915 18.72C53.8848 16.5867 55.3115 15.0267 57.0715 14.04C58.8582 13.0267 60.7915 12.52 62.8715 12.52C64.9515 12.52 66.8715 13.0267 68.6315 14.04C70.4182 15.0267 71.8582 16.5867 72.9515 18.72C74.0448 20.8267 74.5915 23.5867 74.5915 27C74.5915 30.3867 74.0448 33.1467 72.9515 35.28C71.8582 37.4133 70.4182 38.9867 68.6315 40C66.8715 40.9867 64.9515 41.48 62.8715 41.48C60.7915 41.48 58.8582 40.9867 57.0715 40C55.3115 38.9867 53.8848 37.4133 52.7915 35.28C51.6982 33.1467 51.1515 30.3867 51.1515 27ZM53.3115 27C53.3115 29.8 53.7248 32.12 54.5515 33.96C55.4048 35.8 56.5515 37.1733 57.9915 38.08C59.4315 38.9867 61.0448 39.44 62.8315 39.44C64.5915 39.44 66.1915 38.9867 67.6315 38.08C69.0982 37.1733 70.2582 35.8 71.1115 33.96C71.9915 32.12 72.4315 29.8 72.4315 27C72.4315 24.1733 71.9915 21.8533 71.1115 20.04C70.2315 18.2 69.0582 16.8267 67.5915 15.92C66.1515 15.0133 64.5648 14.56 62.8315 14.56C61.0448 14.56 59.4315 15.0267 57.9915 15.96C56.5515 16.8667 55.4048 18.24 54.5515 20.08C53.7248 21.92 53.3115 24.2267 53.3115 27ZM79.0721 13H81.1121V41H78.9921L79.0721 13ZM88.0321 13C89.6055 13 90.9921 13.32 92.1921 13.96C93.4188 14.5733 94.3788 15.5067 95.0721 16.76C95.7921 17.9867 96.1521 19.52 96.1521 21.36C96.1521 23.12 95.7921 24.6133 95.0721 25.84C94.3788 27.0667 93.4455 28 92.2721 28.64C91.0988 29.28 89.8188 29.6 88.4321 29.6H79.4321V13H88.0321ZM80.7121 27.68H88.0321C89.1255 27.68 90.1121 27.4533 90.9921 27C91.8988 26.52 92.6188 25.8267 93.1521 24.92C93.7121 23.9867 93.9921 22.84 93.9921 21.48C93.9921 19.9867 93.7121 18.76 93.1521 17.8C92.6188 16.8133 91.8988 16.0933 90.9921 15.64C90.1121 15.16 89.1255 14.92 88.0321 14.92H80.7121V27.68ZM87.2721 28.36L89.1921 27.72L96.1121 40.52V41H94.0321L87.2721 28.36Z" fill="#2A2A2A"/>
</svg>
