<svg width="163" height="61" viewBox="0 0 163 61" fill="none" xmlns="http://www.w3.org/2000/svg">
<path d="M10 49L146.5 49" stroke="black"/>
<path d="M19.668 41.696C19.668 43.3093 19.2867 44.7027 18.524 45.876C17.7907 47.0493 16.764 47.9587 15.444 48.604C14.124 49.22 12.5693 49.528 10.78 49.528C9.372 49.528 8.06667 49.352 6.864 49C5.69067 48.6773 4.67867 48.2813 3.828 47.812C3.00667 47.3427 2.39067 46.9467 1.98 46.624V42.84H2.552C3.46133 43.632 4.63467 44.3507 6.072 44.996C7.53867 45.6413 9.00533 45.964 10.472 45.964C11.4107 45.964 12.276 45.832 13.068 45.568C13.8893 45.2747 14.5347 44.82 15.004 44.204C15.5027 43.588 15.752 42.8253 15.752 41.916C15.752 40.772 15.4587 39.8333 14.872 39.1C14.2853 38.3373 13.3907 37.5893 12.188 36.856L6.864 33.512C6.04267 32.984 5.192 32.3827 4.312 31.708C3.46133 31.004 2.74267 30.1533 2.156 29.156C1.59867 28.1293 1.32 26.8827 1.32 25.416C1.32 23.744 1.70133 22.336 2.464 21.192C3.22667 20.048 4.25333 19.1827 5.544 18.596C6.83467 18.0093 8.28667 17.716 9.9 17.716C11.3373 17.716 12.5987 17.8627 13.684 18.156C14.7693 18.4493 15.6933 18.816 16.456 19.256C17.2187 19.696 17.82 20.136 18.26 20.576V24.36H17.644C16.9107 23.5093 15.8693 22.7907 14.52 22.204C13.1707 21.588 11.66 21.28 9.988 21.28C8.60933 21.28 7.46533 21.6173 6.556 22.292C5.676 22.9373 5.236 23.876 5.236 25.108C5.236 26.252 5.632 27.2347 6.424 28.056C7.216 28.8773 8.16933 29.64 9.284 30.344L14.212 33.424C15.2093 34.04 16.1187 34.7293 16.94 35.492C17.7613 36.2547 18.4213 37.1347 18.92 38.132C19.4187 39.1293 19.668 40.3173 19.668 41.696ZM23.2241 49V18.2H33.0361C34.9134 18.2 36.5708 18.552 38.0081 19.256C39.4454 19.9307 40.5894 21.0013 41.4401 22.468C42.2908 23.9347 42.7161 25.812 42.7161 28.1C42.7161 30.388 42.2761 32.2947 41.3961 33.82C40.5454 35.3453 39.3868 36.504 37.9201 37.296C36.4828 38.0587 34.8548 38.44 33.0361 38.44H27.0961V49H23.2241ZM27.0961 35.008H32.6841C33.8281 35.008 34.8548 34.7733 35.7641 34.304C36.6734 33.8053 37.3921 33.0573 37.9201 32.06C38.4774 31.0627 38.7561 29.8307 38.7561 28.364C38.7561 26.9267 38.4774 25.7093 37.9201 24.712C37.3921 23.7147 36.6734 22.9667 35.7641 22.468C34.8548 21.9693 33.8281 21.72 32.6841 21.72H27.0961V35.008ZM44.8934 33.6C44.8934 29.8453 45.4947 26.8093 46.6974 24.492C47.9001 22.1453 49.4694 20.4293 51.4054 19.344C53.3707 18.2293 55.4974 17.672 57.7854 17.672C60.0734 17.672 62.1854 18.2293 64.1214 19.344C66.0867 20.4293 67.6707 22.1453 68.8734 24.492C70.0761 26.8093 70.6774 29.8453 70.6774 33.6C70.6774 37.3253 70.0761 40.3613 68.8734 42.708C67.6707 45.0547 66.0867 46.7853 64.1214 47.9C62.1854 48.9853 60.0734 49.528 57.7854 49.528C55.4974 49.528 53.3707 48.9853 51.4054 47.9C49.4694 46.7853 47.9001 45.0547 46.6974 42.708C45.4947 40.3613 44.8934 37.3253 44.8934 33.6ZM48.8974 33.6C48.8974 36.328 49.2787 38.6013 50.0414 40.42C50.8334 42.2387 51.9041 43.6027 53.2534 44.512C54.6027 45.392 56.1134 45.832 57.7854 45.832C59.4281 45.832 60.9241 45.392 62.2734 44.512C63.6227 43.6027 64.6934 42.2387 65.4854 40.42C66.3067 38.6013 66.7174 36.328 66.7174 33.6C66.7174 30.8427 66.3067 28.5693 65.4854 26.78C64.6641 24.9613 63.5787 23.612 62.2294 22.732C60.8801 21.8227 59.3987 21.368 57.7854 21.368C56.1134 21.368 54.6027 21.8227 53.2534 22.732C51.9041 23.6413 50.8334 25.0053 50.0414 26.824C49.2787 28.6133 48.8974 30.872 48.8974 33.6ZM75.0035 18.2H78.7875V49H74.9155L75.0035 18.2ZM85.3875 18.2C87.1182 18.2 88.6582 18.552 90.0075 19.256C91.3568 19.9307 92.4128 20.9573 93.1755 22.336C93.9675 23.7147 94.3635 25.4307 94.3635 27.484C94.3635 29.4787 93.9528 31.1653 93.1315 32.544C92.3395 33.9227 91.2835 34.9787 89.9635 35.712C88.6435 36.416 87.2062 36.768 85.6515 36.768H76.3675V18.2H85.3875ZM78.5235 33.38H85.0795C86.0768 33.38 86.9715 33.16 87.7635 32.72C88.5555 32.28 89.1862 31.6347 89.6555 30.784C90.1542 29.904 90.4035 28.8627 90.4035 27.66C90.4035 26.34 90.1542 25.24 89.6555 24.36C89.1862 23.48 88.5555 22.82 87.7635 22.38C86.9715 21.94 86.0768 21.72 85.0795 21.72H78.5235V33.38ZM83.8035 34.612L87.4555 34.128L94.3635 48.296V49H90.4035L83.8035 34.612Z" fill="black"/>
<circle cx="132.5" cy="30.5" r="30.35" fill="#A5EB9F" stroke="black" stroke-width="0.3"/>
<path d="M121.166 45.9533C121.166 45.9533 130.801 6.13248 121.166 14.0387C118.572 16.1675 121.167 14.0387 116.491 17.6094C106.371 25.3359 151.244 10.4509 146.932 20.4216C142.62 30.3924 140.202 35.9826 135.89 45.9533C131.577 55.924 128.244 37.6739 130.106 32.1236C132.783 24.1414 149.142 43.5631 151.665 32.1236" stroke="black" stroke-width="2" stroke-linecap="round" stroke-linejoin="round"/>
</svg>
