<svg width="122" height="52" viewBox="0 0 122 52" fill="none" xmlns="http://www.w3.org/2000/svg">
<ellipse cx="102.5" cy="26" rx="19.5" ry="26" fill="#A5EB9F"/>
<path d="M15.575 34.645C15.575 35.8117 15.2833 36.8267 14.7 37.69C14.14 38.5533 13.3467 39.23 12.32 39.72C11.2933 40.1867 10.08 40.42 8.68 40.42C7.53667 40.42 6.49833 40.28 5.565 40C4.655 39.7433 3.87333 39.4283 3.22 39.055C2.56667 38.6817 2.07667 38.3667 1.75 38.11V36.29H2.1C2.8 36.8967 3.745 37.4567 4.935 37.97C6.14833 38.4833 7.39667 38.74 8.68 38.74C9.56667 38.74 10.395 38.6117 11.165 38.355C11.935 38.075 12.5533 37.6433 13.02 37.06C13.51 36.4767 13.755 35.73 13.755 34.82C13.755 33.77 13.4983 32.895 12.985 32.195C12.4717 31.4717 11.7017 30.7833 10.675 30.13L5.565 26.84C4.935 26.42 4.28167 25.9533 3.605 25.44C2.92833 24.9033 2.35667 24.25 1.89 23.48C1.44667 22.71 1.225 21.7883 1.225 20.715C1.225 19.4783 1.51667 18.4517 2.1 17.635C2.68333 16.795 3.47667 16.165 4.48 15.745C5.48333 15.325 6.60333 15.115 7.84 15.115C9.05333 15.115 10.0917 15.2433 10.955 15.5C11.8417 15.7567 12.565 16.06 13.125 16.41C13.7083 16.76 14.14 17.075 14.42 17.355V19.175H14.07C13.5567 18.545 12.74 17.9967 11.62 17.53C10.5233 17.04 9.21667 16.795 7.7 16.795C6.34667 16.795 5.22667 17.1217 4.34 17.775C3.47667 18.405 3.045 19.315 3.045 20.505C3.045 21.5783 3.38333 22.5 4.06 23.27C4.76 24.04 5.53 24.6933 6.37 25.23L10.99 28.17C11.7833 28.66 12.53 29.2083 13.23 29.815C13.93 30.3983 14.49 31.075 14.91 31.845C15.3533 32.615 15.575 33.5483 15.575 34.645ZM18.9246 40V15.5H26.2746C27.7679 15.5 29.0979 15.78 30.2646 16.34C31.4313 16.8767 32.3529 17.7167 33.0296 18.86C33.7296 20.0033 34.0796 21.4733 34.0796 23.27C34.0796 25.0433 33.7296 26.5367 33.0296 27.75C32.3529 28.94 31.4313 29.8383 30.2646 30.445C29.0979 31.0517 27.7679 31.355 26.2746 31.355H20.7796V40H18.9246ZM20.7796 29.675H26.2746C27.3479 29.675 28.3279 29.4533 29.2146 29.01C30.1013 28.5667 30.8129 27.89 31.3496 26.98C31.9096 26.0467 32.1896 24.8683 32.1896 23.445C32.1896 22.045 31.9096 20.8783 31.3496 19.945C30.8129 19.0117 30.1013 18.3233 29.2146 17.88C28.3279 17.4133 27.3479 17.18 26.2746 17.18H20.7796V29.675ZM36.2633 27.75C36.2633 24.7633 36.7416 22.3483 37.6983 20.505C38.6549 18.6383 39.9033 17.2733 41.4433 16.41C43.0066 15.5233 44.6983 15.08 46.5183 15.08C48.3383 15.08 50.0183 15.5233 51.5583 16.41C53.1216 17.2733 54.3816 18.6383 55.3383 20.505C56.2949 22.3483 56.7733 24.7633 56.7733 27.75C56.7733 30.7133 56.2949 33.1283 55.3383 34.995C54.3816 36.8617 53.1216 38.2383 51.5583 39.125C50.0183 39.9883 48.3383 40.42 46.5183 40.42C44.6983 40.42 43.0066 39.9883 41.4433 39.125C39.9033 38.2383 38.6549 36.8617 37.6983 34.995C36.7416 33.1283 36.2633 30.7133 36.2633 27.75ZM38.1533 27.75C38.1533 30.2 38.5149 32.23 39.2383 33.84C39.9849 35.45 40.9883 36.6517 42.2483 37.445C43.5083 38.2383 44.9199 38.635 46.4833 38.635C48.0233 38.635 49.4233 38.2383 50.6833 37.445C51.9666 36.6517 52.9816 35.45 53.7283 33.84C54.4983 32.23 54.8833 30.2 54.8833 27.75C54.8833 25.2767 54.4983 23.2467 53.7283 21.66C52.9583 20.05 51.9316 18.8483 50.6483 18.055C49.3883 17.2617 47.9999 16.865 46.4833 16.865C44.9199 16.865 43.5083 17.2733 42.2483 18.09C40.9883 18.8833 39.9849 20.085 39.2383 21.695C38.5149 23.305 38.1533 25.3233 38.1533 27.75ZM60.6938 15.5H62.4788V40H60.6238L60.6938 15.5ZM68.5338 15.5C69.9105 15.5 71.1238 15.78 72.1738 16.34C73.2472 16.8767 74.0872 17.6933 74.6938 18.79C75.3238 19.8633 75.6388 21.205 75.6388 22.815C75.6388 24.355 75.3238 25.6617 74.6938 26.735C74.0872 27.8083 73.2705 28.625 72.2438 29.185C71.2172 29.745 70.0972 30.025 68.8838 30.025H61.0088V15.5H68.5338ZM62.1288 28.345H68.5338C69.4905 28.345 70.3538 28.1467 71.1238 27.75C71.9172 27.33 72.5472 26.7233 73.0138 25.93C73.5038 25.1133 73.7488 24.11 73.7488 22.92C73.7488 21.6133 73.5038 20.54 73.0138 19.7C72.5472 18.8367 71.9172 18.2067 71.1238 17.81C70.3538 17.39 69.4905 17.18 68.5338 17.18H62.1288V28.345ZM67.8688 28.94L69.5488 28.38L75.6038 39.58V40H73.7838L67.8688 28.94Z" fill="black"/>
<path d="M92.3781 39.7407C92.3781 39.7407 100.781 5.01039 92.3781 11.906C90.1156 13.7626 92.3787 11.906 88.3001 15.0202C79.4745 21.7589 118.611 8.77679 114.85 17.4729C111.089 26.169 108.98 31.0446 105.219 39.7407C101.458 48.4368 98.5507 32.5197 100.175 27.679C102.51 20.7172 116.778 37.6561 118.978 27.679" stroke="black" stroke-width="2" stroke-linecap="round" stroke-linejoin="round"/>
</svg>
