<svg width="171" height="63" viewBox="0 0 171 63" fill="none" xmlns="http://www.w3.org/2000/svg">
<path d="M1.5 56.4113H102.554C102.554 56.4113 118.086 -9.9365 102.554 3.23659C98.3722 6.78341 102.555 3.23659 95.0164 9.1859C78.7037 22.0594 151.042 -2.74129 144.09 13.8715C137.138 30.4844 133.241 39.7985 126.289 56.4113C119.337 73.0241 113.963 42.6165 116.965 33.3689C121.281 20.0693 147.653 52.4289 151.719 33.3689H168.857" stroke="black" stroke-width="3" stroke-linecap="round" stroke-linejoin="round"/>
<path d="M19.3798 43.777C19.3798 45.2437 19.0331 46.5103 18.3398 47.577C17.6731 48.6437 16.7398 49.4703 15.5398 50.057C14.3398 50.617 12.9264 50.897 11.2998 50.897C10.0198 50.897 8.83309 50.737 7.73976 50.417C6.67309 50.1237 5.75309 49.7637 4.97976 49.337C4.23309 48.9103 3.67309 48.5503 3.29976 48.257V44.817H3.81976C4.64642 45.537 5.71309 46.1903 7.01976 46.777C8.35309 47.3637 9.68642 47.657 11.0198 47.657C11.8731 47.657 12.6598 47.537 13.3798 47.297C14.1264 47.0303 14.7131 46.617 15.1398 46.057C15.5931 45.497 15.8198 44.8037 15.8198 43.977C15.8198 42.937 15.5531 42.0837 15.0198 41.417C14.4864 40.7237 13.6731 40.0437 12.5798 39.377L7.73976 36.337C6.99309 35.857 6.21976 35.3103 5.41976 34.697C4.64642 34.057 3.99309 33.2837 3.45976 32.377C2.95309 31.4437 2.69976 30.3103 2.69976 28.977C2.69976 27.457 3.04642 26.177 3.73976 25.137C4.43309 24.097 5.36642 23.3103 6.53976 22.777C7.71309 22.2437 9.03309 21.977 10.4998 21.977C11.8064 21.977 12.9531 22.1103 13.9398 22.377C14.9264 22.6437 15.7664 22.977 16.4598 23.377C17.1531 23.777 17.6998 24.177 18.0998 24.577V28.017H17.5398C16.8731 27.2437 15.9264 26.5903 14.6998 26.057C13.4731 25.497 12.0998 25.217 10.5798 25.217C9.32642 25.217 8.28642 25.5237 7.45976 26.137C6.65976 26.7237 6.25976 27.577 6.25976 28.697C6.25976 29.737 6.61976 30.6303 7.33976 31.377C8.05976 32.1237 8.92642 32.817 9.93976 33.457L14.4198 36.257C15.3264 36.817 16.1531 37.4437 16.8998 38.137C17.6464 38.8303 18.2464 39.6303 18.6998 40.537C19.1531 41.4437 19.3798 42.5237 19.3798 43.777ZM22.6126 50.417V22.417H31.5326C33.2392 22.417 34.7459 22.737 36.0526 23.377C37.3592 23.9903 38.3992 24.9637 39.1726 26.297C39.9459 27.6303 40.3326 29.337 40.3326 31.417C40.3326 33.497 39.9326 35.2303 39.1326 36.617C38.3592 38.0037 37.3059 39.057 35.9726 39.777C34.6659 40.4703 33.1859 40.817 31.5326 40.817H26.1326V50.417H22.6126ZM26.1326 37.697H31.2126C32.2526 37.697 33.1859 37.4837 34.0126 37.057C34.8392 36.6037 35.4926 35.9237 35.9726 35.017C36.4792 34.1103 36.7326 32.9903 36.7326 31.657C36.7326 30.3503 36.4792 29.2437 35.9726 28.337C35.4926 27.4303 34.8392 26.7503 34.0126 26.297C33.1859 25.8437 32.2526 25.617 31.2126 25.617H26.1326V37.697ZM42.3119 36.417C42.3119 33.0037 42.8586 30.2437 43.9519 28.137C45.0453 26.0037 46.4719 24.4437 48.2319 23.457C50.0186 22.4437 51.9519 21.937 54.0319 21.937C56.1119 21.937 58.0319 22.4437 59.7919 23.457C61.5786 24.4437 63.0186 26.0037 64.1119 28.137C65.2053 30.2437 65.7519 33.0037 65.7519 36.417C65.7519 39.8037 65.2053 42.5637 64.1119 44.697C63.0186 46.8303 61.5786 48.4037 59.7919 49.417C58.0319 50.4037 56.1119 50.897 54.0319 50.897C51.9519 50.897 50.0186 50.4037 48.2319 49.417C46.4719 48.4037 45.0453 46.8303 43.9519 44.697C42.8586 42.5637 42.3119 39.8037 42.3119 36.417ZM45.9519 36.417C45.9519 38.897 46.2986 40.9637 46.9919 42.617C47.7119 44.2703 48.6853 45.5103 49.9119 46.337C51.1386 47.137 52.5119 47.537 54.0319 47.537C55.5253 47.537 56.8853 47.137 58.1119 46.337C59.3386 45.5103 60.3119 44.2703 61.0319 42.617C61.7786 40.9637 62.1519 38.897 62.1519 36.417C62.1519 33.9103 61.7786 31.8437 61.0319 30.217C60.2853 28.5637 59.2986 27.337 58.0719 26.537C56.8453 25.7103 55.4986 25.297 54.0319 25.297C52.5119 25.297 51.1386 25.7103 49.9119 26.537C48.6853 27.3637 47.7119 28.6037 46.9919 30.257C46.2986 31.8837 45.9519 33.937 45.9519 36.417ZM69.6848 22.417H73.1248V50.417H69.6048L69.6848 22.417ZM79.1248 22.417C80.6981 22.417 82.0981 22.737 83.3248 23.377C84.5514 23.9903 85.5114 24.9237 86.2048 26.177C86.9248 27.4303 87.2848 28.9903 87.2848 30.857C87.2848 32.6703 86.9114 34.2037 86.1648 35.457C85.4448 36.7103 84.4848 37.6703 83.2848 38.337C82.0848 38.977 80.7781 39.297 79.3648 39.297H70.9248V22.417H79.1248ZM72.8848 36.217H78.8448C79.7514 36.217 80.5648 36.017 81.2848 35.617C82.0048 35.217 82.5781 34.6303 83.0048 33.857C83.4581 33.057 83.6848 32.1103 83.6848 31.017C83.6848 29.817 83.4581 28.817 83.0048 28.017C82.5781 27.217 82.0048 26.617 81.2848 26.217C80.5648 25.817 79.7514 25.617 78.8448 25.617H72.8848V36.217ZM77.6848 37.337L81.0048 36.897L87.2848 49.777V50.417H83.6848L77.6848 37.337Z" fill="black"/>
</svg>
