<svg width="166" height="63" viewBox="0 0 166 63" fill="none" xmlns="http://www.w3.org/2000/svg">
<path d="M143.384 23.3191C143.384 23.3191 140.736 22.5832 140.526 21.4005C140.317 20.2177 142.101 19.9113 142.112 18.7076C142.122 17.504 138.168 17.5463 137.61 15.8894C137.051 14.2324 139.624 13.0279 138.732 11.5197C137.84 10.0114 135.068 12.0681 133.827 10.6169C132.586 9.16581 133.175 6.5088 134.603 4.98956C136.031 3.47032 138.722 2.90816 139.795 3.55749C140.869 4.20682 140.472 5.4995 141.47 6.25337C142.468 7.00723 145.424 5.40406 147.442 5.95962C149.46 6.51518 151.331 7.75611 151.944 8.77791C152.557 9.79971 153.017 10.5449 152.753 11.7125C152.49 12.88 150.519 13.3858 149.754 14.3441C148.99 15.3023 148.051 15.8408 148.169 17.0369C148.288 18.233 151.004 18.2954 151.142 19.3748C151.28 20.4541 148.554 23.3191 148.554 23.3191" stroke="black" stroke-width="2" stroke-linejoin="round"/>
<path d="M106 54.4999C106 54.4999 117.669 7.34384 106.896 16.1578C103.995 18.531 106.896 16.1578 101.667 20.1385C90.3511 28.7521 140.53 12.1581 135.708 23.2736C130.886 34.3891 128.182 40.6211 123.36 51.7366C118.538 62.8521 114.81 42.5066 116.892 36.3191C119.886 27.4205 141.18 47.7527 144 34.9999" stroke="black" stroke-width="2" stroke-linecap="round" stroke-linejoin="round"/>
<path d="M144 35L143.938 31L141.438 27H150.938L148.438 31V38H158.438C158.438 38 164.5 38.5 164.5 44C164.5 50.5 159.5 50 159.5 50L161.438 54.5L119.5 55" stroke="black" stroke-width="2" stroke-linecap="round" stroke-linejoin="round"/>
<path d="M19.58 48.268C19.58 49.7347 19.2133 51.0107 18.48 52.096C17.776 53.1813 16.7787 54.032 15.488 54.648C14.1973 55.2347 12.672 55.528 10.912 55.528C9.47467 55.528 8.16933 55.352 6.996 55C5.852 54.6773 4.86933 54.2813 4.048 53.812C3.22667 53.3427 2.61067 52.9467 2.2 52.624V50.336H2.64C3.52 51.0987 4.708 51.8027 6.204 52.448C7.72933 53.0933 9.29867 53.416 10.912 53.416C12.0267 53.416 13.068 53.2547 14.036 52.932C15.004 52.58 15.7813 52.0373 16.368 51.304C16.984 50.5707 17.292 49.632 17.292 48.488C17.292 47.168 16.9693 46.068 16.324 45.188C15.6787 44.2787 14.7107 43.4133 13.42 42.592L6.996 38.456C6.204 37.928 5.38267 37.3413 4.532 36.696C3.68133 36.0213 2.96267 35.2 2.376 34.232C1.81867 33.264 1.54 32.1053 1.54 30.756C1.54 29.2013 1.90667 27.9107 2.64 26.884C3.37333 25.828 4.37067 25.036 5.632 24.508C6.89333 23.98 8.30133 23.716 9.856 23.716C11.3813 23.716 12.6867 23.8773 13.772 24.2C14.8867 24.5227 15.796 24.904 16.5 25.344C17.2333 25.784 17.776 26.18 18.128 26.532V28.82H17.688C17.0427 28.028 16.016 27.3387 14.608 26.752C13.2293 26.136 11.5867 25.828 9.68 25.828C7.97867 25.828 6.57067 26.2387 5.456 27.06C4.37067 27.852 3.828 28.996 3.828 30.492C3.828 31.8413 4.25333 33 5.104 33.968C5.984 34.936 6.952 35.7573 8.008 36.432L13.816 40.128C14.8133 40.744 15.752 41.4333 16.632 42.196C17.512 42.9293 18.216 43.78 18.744 44.748C19.3013 45.716 19.58 46.8893 19.58 48.268ZM23.7909 55V24.2H33.0309C34.9083 24.2 36.5803 24.552 38.0469 25.256C39.5136 25.9307 40.6723 26.9867 41.5229 28.424C42.4029 29.8613 42.8429 31.7093 42.8429 33.968C42.8429 36.1973 42.4029 38.0747 41.5229 39.6C40.6723 41.096 39.5136 42.2253 38.0469 42.988C36.5803 43.7507 34.9083 44.132 33.0309 44.132H26.1229V55H23.7909ZM26.1229 42.02H33.0309C34.3803 42.02 35.6123 41.7413 36.7269 41.184C37.8416 40.6267 38.7363 39.776 39.4109 38.632C40.1149 37.4587 40.4669 35.9773 40.4669 34.188C40.4669 32.428 40.1149 30.9613 39.4109 29.788C38.7363 28.6147 37.8416 27.7493 36.7269 27.192C35.6123 26.6053 34.3803 26.312 33.0309 26.312H26.1229V42.02ZM45.5881 39.6C45.5881 35.8453 46.1895 32.8093 47.3921 30.492C48.5948 28.1453 50.1641 26.4293 52.1001 25.344C54.0655 24.2293 56.1921 23.672 58.4801 23.672C60.7681 23.672 62.8801 24.2293 64.8161 25.344C66.7815 26.4293 68.3655 28.1453 69.5681 30.492C70.7708 32.8093 71.3721 35.8453 71.3721 39.6C71.3721 43.3253 70.7708 46.3613 69.5681 48.708C68.3655 51.0547 66.7815 52.7853 64.8161 53.9C62.8801 54.9853 60.7681 55.528 58.4801 55.528C56.1921 55.528 54.0655 54.9853 52.1001 53.9C50.1641 52.7853 48.5948 51.0547 47.3921 48.708C46.1895 46.3613 45.5881 43.3253 45.5881 39.6ZM47.9641 39.6C47.9641 42.68 48.4188 45.232 49.3281 47.256C50.2668 49.28 51.5281 50.7907 53.1121 51.788C54.6961 52.7853 56.4708 53.284 58.4361 53.284C60.3721 53.284 62.1321 52.7853 63.7161 51.788C65.3295 50.7907 66.6055 49.28 67.5441 47.256C68.5121 45.232 68.9961 42.68 68.9961 39.6C68.9961 36.4907 68.5121 33.9387 67.5441 31.944C66.5761 29.92 65.2855 28.4093 63.6721 27.412C62.0881 26.4147 60.3428 25.916 58.4361 25.916C56.4708 25.916 54.6961 26.4293 53.1121 27.456C51.5281 28.4533 50.2668 29.964 49.3281 31.988C48.4188 34.012 47.9641 36.5493 47.9641 39.6ZM76.3008 24.2H78.5448V55H76.2128L76.3008 24.2ZM86.1568 24.2C87.8875 24.2 89.4128 24.552 90.7328 25.256C92.0821 25.9307 93.1381 26.9573 93.9008 28.336C94.6928 29.6853 95.0888 31.372 95.0888 33.396C95.0888 35.332 94.6928 36.9747 93.9008 38.324C93.1381 39.6733 92.1115 40.7 90.8208 41.404C89.5301 42.108 88.1221 42.46 86.5968 42.46H76.6968V24.2H86.1568ZM78.1048 40.348H86.1568C87.3595 40.348 88.4448 40.0987 89.4128 39.6C90.4101 39.072 91.2021 38.3093 91.7888 37.312C92.4048 36.2853 92.7128 35.024 92.7128 33.528C92.7128 31.8853 92.4048 30.536 91.7888 29.48C91.2021 28.3947 90.4101 27.6027 89.4128 27.104C88.4448 26.576 87.3595 26.312 86.1568 26.312H78.1048V40.348ZM85.3208 41.096L87.4328 40.392L95.0448 54.472V55H92.7568L85.3208 41.096Z" fill="black"/>
<path d="M121 55C121 55 60.425 55.0005 12 55.0005C10.1424 55.0005 5 54.5005 2 51.0005" stroke="black" stroke-width="2" stroke-linecap="round" stroke-linejoin="round"/>
</svg>
